<mxfile host="app.diagrams.net" modified="2022-08-01T09:28:21.002Z" agent="5.0 (Windows NT 10.0; Win64; x64) AppleWebKit/537.36 (KHTML, like Gecko) Chrome/103.0.5060.114 Safari/537.36 Edg/103.0.1264.49" etag="D3E3OELBDjhaWaeQqIiJ" version="18.2.0" type="github">
  <diagram id="KhJ2P2RWVF0fFu3-0xIE" name="第 1 页">
    <mxGraphModel dx="2233" dy="755" grid="1" gridSize="10" guides="1" tooltips="1" connect="1" arrows="1" fold="1" page="1" pageScale="1" pageWidth="827" pageHeight="1169" math="0" shadow="0">
      <root>
        <mxCell id="0" />
        <mxCell id="1" parent="0" />
        <mxCell id="GARxsetZ7foCLUvqXNxQ-3" value="" style="edgeStyle=orthogonalEdgeStyle;rounded=0;orthogonalLoop=1;jettySize=auto;html=1;endArrow=ERoneToMany;endFill=0;" edge="1" parent="1" source="GARxsetZ7foCLUvqXNxQ-1" target="GARxsetZ7foCLUvqXNxQ-12">
          <mxGeometry relative="1" as="geometry">
            <mxPoint x="239" y="320" as="targetPoint" />
          </mxGeometry>
        </mxCell>
        <mxCell id="GARxsetZ7foCLUvqXNxQ-5" style="edgeStyle=orthogonalEdgeStyle;rounded=0;orthogonalLoop=1;jettySize=auto;html=1;exitX=0.5;exitY=0;exitDx=0;exitDy=0;endArrow=ERoneToMany;endFill=0;startArrow=ERone;startFill=0;" edge="1" parent="1" source="GARxsetZ7foCLUvqXNxQ-1" target="GARxsetZ7foCLUvqXNxQ-4">
          <mxGeometry relative="1" as="geometry" />
        </mxCell>
        <mxCell id="GARxsetZ7foCLUvqXNxQ-7" style="edgeStyle=orthogonalEdgeStyle;rounded=0;orthogonalLoop=1;jettySize=auto;html=1;exitX=0.5;exitY=1;exitDx=0;exitDy=0;endArrow=ERoneToMany;endFill=0;startArrow=ERone;startFill=0;" edge="1" parent="1" source="GARxsetZ7foCLUvqXNxQ-1" target="GARxsetZ7foCLUvqXNxQ-6">
          <mxGeometry relative="1" as="geometry" />
        </mxCell>
        <mxCell id="GARxsetZ7foCLUvqXNxQ-9" value="" style="edgeStyle=orthogonalEdgeStyle;rounded=0;orthogonalLoop=1;jettySize=auto;html=1;endArrow=ERoneToMany;endFill=0;exitX=1;exitY=0.25;exitDx=0;exitDy=0;" edge="1" parent="1" source="GARxsetZ7foCLUvqXNxQ-1" target="GARxsetZ7foCLUvqXNxQ-8">
          <mxGeometry relative="1" as="geometry" />
        </mxCell>
        <mxCell id="GARxsetZ7foCLUvqXNxQ-11" value="" style="edgeStyle=orthogonalEdgeStyle;rounded=0;orthogonalLoop=1;jettySize=auto;html=1;endArrow=ERoneToMany;endFill=0;exitX=1;exitY=0.75;exitDx=0;exitDy=0;" edge="1" parent="1" source="GARxsetZ7foCLUvqXNxQ-1" target="GARxsetZ7foCLUvqXNxQ-10">
          <mxGeometry relative="1" as="geometry" />
        </mxCell>
        <mxCell id="GARxsetZ7foCLUvqXNxQ-1" value="订单记录" style="rounded=1;whiteSpace=wrap;html=1;fillColor=#FFCCCC;" vertex="1" parent="1">
          <mxGeometry x="349" y="290" width="120" height="60" as="geometry" />
        </mxCell>
        <mxCell id="GARxsetZ7foCLUvqXNxQ-13" style="edgeStyle=orthogonalEdgeStyle;rounded=0;orthogonalLoop=1;jettySize=auto;html=1;exitX=1;exitY=0.5;exitDx=0;exitDy=0;endArrow=ERone;endFill=0;startArrow=ERone;startFill=0;" edge="1" parent="1" source="GARxsetZ7foCLUvqXNxQ-4" target="GARxsetZ7foCLUvqXNxQ-8">
          <mxGeometry relative="1" as="geometry" />
        </mxCell>
        <mxCell id="GARxsetZ7foCLUvqXNxQ-4" value="支付记录" style="rounded=1;whiteSpace=wrap;html=1;fillColor=#FFCCCC;" vertex="1" parent="1">
          <mxGeometry x="349" y="140" width="120" height="60" as="geometry" />
        </mxCell>
        <mxCell id="GARxsetZ7foCLUvqXNxQ-14" style="edgeStyle=orthogonalEdgeStyle;rounded=0;orthogonalLoop=1;jettySize=auto;html=1;exitX=1;exitY=0.5;exitDx=0;exitDy=0;entryX=0;entryY=0.5;entryDx=0;entryDy=0;startArrow=ERone;startFill=0;endArrow=ERone;endFill=0;" edge="1" parent="1" source="GARxsetZ7foCLUvqXNxQ-6" target="GARxsetZ7foCLUvqXNxQ-10">
          <mxGeometry relative="1" as="geometry" />
        </mxCell>
        <mxCell id="GARxsetZ7foCLUvqXNxQ-6" value="退款记录" style="rounded=1;whiteSpace=wrap;html=1;fillColor=#FFCCCC;" vertex="1" parent="1">
          <mxGeometry x="349" y="440" width="120" height="60" as="geometry" />
        </mxCell>
        <mxCell id="GARxsetZ7foCLUvqXNxQ-8" value="门诊缴费记录" style="whiteSpace=wrap;html=1;rounded=1;fillColor=#FFCCCC;" vertex="1" parent="1">
          <mxGeometry x="589" y="140" width="120" height="60" as="geometry" />
        </mxCell>
        <mxCell id="GARxsetZ7foCLUvqXNxQ-10" value="门诊退款记录" style="whiteSpace=wrap;html=1;rounded=1;fillColor=#FFCCCC;" vertex="1" parent="1">
          <mxGeometry x="589" y="440" width="120" height="60" as="geometry" />
        </mxCell>
        <mxCell id="GARxsetZ7foCLUvqXNxQ-12" value="订单详细" style="rounded=1;whiteSpace=wrap;html=1;fillColor=#FFCCCC;" vertex="1" parent="1">
          <mxGeometry x="670" y="290" width="120" height="60" as="geometry" />
        </mxCell>
        <mxCell id="GARxsetZ7foCLUvqXNxQ-22" style="edgeStyle=orthogonalEdgeStyle;rounded=0;orthogonalLoop=1;jettySize=auto;html=1;exitX=0;exitY=0.5;exitDx=0;exitDy=0;entryX=1;entryY=0.5;entryDx=0;entryDy=0;startArrow=none;startFill=0;endArrow=none;endFill=0;" edge="1" parent="1" source="GARxsetZ7foCLUvqXNxQ-23" target="GARxsetZ7foCLUvqXNxQ-12">
          <mxGeometry relative="1" as="geometry" />
        </mxCell>
        <mxCell id="GARxsetZ7foCLUvqXNxQ-28" style="edgeStyle=orthogonalEdgeStyle;rounded=0;orthogonalLoop=1;jettySize=auto;html=1;exitX=0.5;exitY=0;exitDx=0;exitDy=0;entryX=1;entryY=0.5;entryDx=0;entryDy=0;startArrow=none;startFill=0;endArrow=ERmany;endFill=0;" edge="1" parent="1" source="GARxsetZ7foCLUvqXNxQ-15" target="GARxsetZ7foCLUvqXNxQ-8">
          <mxGeometry relative="1" as="geometry" />
        </mxCell>
        <mxCell id="GARxsetZ7foCLUvqXNxQ-29" style="edgeStyle=orthogonalEdgeStyle;rounded=0;orthogonalLoop=1;jettySize=auto;html=1;exitX=0.5;exitY=1;exitDx=0;exitDy=0;entryX=1;entryY=0.5;entryDx=0;entryDy=0;startArrow=none;startFill=0;endArrow=ERmany;endFill=0;" edge="1" parent="1" source="GARxsetZ7foCLUvqXNxQ-15" target="GARxsetZ7foCLUvqXNxQ-10">
          <mxGeometry relative="1" as="geometry" />
        </mxCell>
        <mxCell id="GARxsetZ7foCLUvqXNxQ-15" value="HIS" style="rounded=1;whiteSpace=wrap;html=1;fillColor=#d5e8d4;strokeColor=#82b366;" vertex="1" parent="1">
          <mxGeometry x="1020" y="290" width="120" height="60" as="geometry" />
        </mxCell>
        <mxCell id="GARxsetZ7foCLUvqXNxQ-20" style="edgeStyle=orthogonalEdgeStyle;rounded=0;orthogonalLoop=1;jettySize=auto;html=1;exitX=1;exitY=0.75;exitDx=0;exitDy=0;entryX=0;entryY=0.5;entryDx=0;entryDy=0;startArrow=none;startFill=0;endArrow=ERmany;endFill=0;" edge="1" parent="1" source="GARxsetZ7foCLUvqXNxQ-17" target="GARxsetZ7foCLUvqXNxQ-6">
          <mxGeometry relative="1" as="geometry" />
        </mxCell>
        <mxCell id="GARxsetZ7foCLUvqXNxQ-31" style="edgeStyle=orthogonalEdgeStyle;rounded=0;orthogonalLoop=1;jettySize=auto;html=1;exitX=0.5;exitY=0;exitDx=0;exitDy=0;startArrow=none;startFill=0;endArrow=ERmany;endFill=0;" edge="1" parent="1" source="GARxsetZ7foCLUvqXNxQ-17" target="GARxsetZ7foCLUvqXNxQ-30">
          <mxGeometry relative="1" as="geometry" />
        </mxCell>
        <mxCell id="GARxsetZ7foCLUvqXNxQ-16" value="支付平台" style="rounded=1;whiteSpace=wrap;html=1;fillColor=#d5e8d4;strokeColor=#82b366;" vertex="1" parent="1">
          <mxGeometry x="-180" y="290" width="120" height="60" as="geometry" />
        </mxCell>
        <mxCell id="GARxsetZ7foCLUvqXNxQ-19" style="edgeStyle=orthogonalEdgeStyle;rounded=0;orthogonalLoop=1;jettySize=auto;html=1;exitX=1;exitY=0.25;exitDx=0;exitDy=0;entryX=0;entryY=0.5;entryDx=0;entryDy=0;startArrow=none;startFill=0;endArrow=ERzeroToMany;endFill=0;" edge="1" parent="1" source="GARxsetZ7foCLUvqXNxQ-17" target="GARxsetZ7foCLUvqXNxQ-4">
          <mxGeometry relative="1" as="geometry" />
        </mxCell>
        <mxCell id="GARxsetZ7foCLUvqXNxQ-27" value="" style="edgeStyle=orthogonalEdgeStyle;rounded=0;orthogonalLoop=1;jettySize=auto;html=1;startArrow=none;startFill=0;endArrow=ERmany;endFill=0;" edge="1" parent="1" source="GARxsetZ7foCLUvqXNxQ-23" target="GARxsetZ7foCLUvqXNxQ-12">
          <mxGeometry relative="1" as="geometry" />
        </mxCell>
        <mxCell id="GARxsetZ7foCLUvqXNxQ-23" value="医生" style="whiteSpace=wrap;html=1;fillColor=#fff2cc;strokeColor=#d6b656;rounded=1;" vertex="1" parent="1">
          <mxGeometry x="840" y="290" width="120" height="60" as="geometry" />
        </mxCell>
        <mxCell id="GARxsetZ7foCLUvqXNxQ-24" value="" style="edgeStyle=orthogonalEdgeStyle;rounded=0;orthogonalLoop=1;jettySize=auto;html=1;exitX=0;exitY=0.5;exitDx=0;exitDy=0;entryX=1;entryY=0.5;entryDx=0;entryDy=0;startArrow=none;startFill=0;endArrow=none;endFill=0;" edge="1" parent="1" source="GARxsetZ7foCLUvqXNxQ-15" target="GARxsetZ7foCLUvqXNxQ-23">
          <mxGeometry relative="1" as="geometry">
            <mxPoint x="920" y="320" as="sourcePoint" />
            <mxPoint x="790" y="320" as="targetPoint" />
          </mxGeometry>
        </mxCell>
        <mxCell id="GARxsetZ7foCLUvqXNxQ-17" value="支付商户" style="whiteSpace=wrap;html=1;fillColor=#fff2cc;strokeColor=#d6b656;rounded=1;" vertex="1" parent="1">
          <mxGeometry x="-10" y="290" width="120" height="60" as="geometry" />
        </mxCell>
        <mxCell id="GARxsetZ7foCLUvqXNxQ-26" value="" style="edgeStyle=orthogonalEdgeStyle;rounded=0;orthogonalLoop=1;jettySize=auto;html=1;exitX=1;exitY=0.5;exitDx=0;exitDy=0;entryX=0;entryY=0.5;entryDx=0;entryDy=0;startArrow=none;startFill=0;endArrow=none;endFill=0;" edge="1" parent="1" source="GARxsetZ7foCLUvqXNxQ-16" target="GARxsetZ7foCLUvqXNxQ-17">
          <mxGeometry relative="1" as="geometry">
            <mxPoint x="-50" y="320" as="sourcePoint" />
            <mxPoint x="159" y="170" as="targetPoint" />
          </mxGeometry>
        </mxCell>
        <mxCell id="GARxsetZ7foCLUvqXNxQ-30" value="对账单" style="rounded=1;whiteSpace=wrap;html=1;fillColor=#d5e8d4;strokeColor=#82b366;" vertex="1" parent="1">
          <mxGeometry x="-10" y="140" width="120" height="60" as="geometry" />
        </mxCell>
      </root>
    </mxGraphModel>
  </diagram>
</mxfile>
